<svg version="1.1" id="Layer_1" xmlns="http://www.w3.org/2000/svg" x="0" y="0" viewBox="0 0 47 47" xml:space="preserve"><style>.st0{fill:none}.st1{fill-opacity:.1}.st1,.st2{fill:#fff}</style><path class="st0" d="M15.7 0h15.7C40 0 47 7 47 15.7v15.7C47 40 40 47 31.3 47H15.7C7 47 0 40 0 31.3V15.7C0 7 7 0 15.7 0z"/><path class="st1" d="M15.7 0h15.7C40 0 47 7 47 15.7v15.7C47 40 40 47 31.3 47H15.7C7 47 0 40 0 31.3V15.7C0 7 7 0 15.7 0z"/><path class="st0" d="M15.7 0h15.7C40 0 47 7 47 15.7v15.7C47 40 40 47 31.3 47H15.7C7 47 0 40 0 31.3V15.7C0 7 7 0 15.7 0z"/><path class="st1" d="M15.7 0h15.7C40 0 47 7 47 15.7v15.7C47 40 40 47 31.3 47H15.7C7 47 0 40 0 31.3V15.7C0 7 7 0 15.7 0z"/><path class="st2" d="M15.7 0h15.7C40 0 47 7 47 15.7v15.7C47 40 40 47 31.3 47H15.7C7 47 0 40 0 31.3V15.7C0 7 7 0 15.7 0z"/><path d="M15.7 0h15.7C40 0 47 7 47 15.7v15.7C47 40 40 47 31.3 47H15.7C7 47 0 40 0 31.3V15.7C0 7 7 0 15.7 0z" fill="#e6b453"/><g><path class="st2" d="M21.3 36.3c-2.5 0-3.3-1.9-2.7-5.6l1.7-8.9c.1-.8.2-1.4.1-1.9-.1-.4-.3-.6-.8-.6-.6 0-1.5.3-2.8.9v-.1c.8-1 1.7-1.8 2.8-2.7s2.1-1.2 3.1-1.2c2.4 0 3.3 1.9 2.6 5.6l-1.7 8.9c-.1.8-.2 1.5-.1 1.9 0 .4.3.7.8.7.6 0 1.5-.3 2.7-.9v.1c-.7.9-1.6 1.8-2.7 2.6s-2.1 1.2-3 1.2zm4.8-26.5c.5.5.8 1.2.8 1.9 0 .8-.3 1.4-.8 1.9s-1.2.8-1.9.8c-.8 0-1.4-.3-2-.8-.5-.5-.8-1.2-.8-1.9 0-.8.3-1.4.8-2s1.2-.8 2-.8c.7.1 1.4.3 1.9.9z"/></g></svg>