<svg xmlns="http://www.w3.org/2000/svg" viewBox="0 0 25 26.1"><path d="M22.5 2.9c-2.1-2-5.4-3-10-2.9S4.8.9 2.8 2.5C.9 4.1 0 6.4 0 9.8v3.4c0 4 2.1 8.3 6.2 9 .5.1.9-.2 1-.7s-.2-.9-.7-1c-3.1-.5-4.8-4.1-4.8-7.3V9.8c0-4.8 1.8-7.8 10.8-8 4.1-.1 7 .7 8.7 2.4 1.4 1.5 2.2 3.5 2 5.6v3.4c0 5.2-2.4 7.5-8.4 8.2h-4.3c-.2 0-.4.1-.6.2l-3 3c-.3.3-.3.9 0 1.2.3.3.9.3 1.2 0l2.8-2.7H15c3.5-.4 5.8-1.3 7.4-2.8 1.7-1.6 2.5-3.9 2.5-7.1V9.8c.2-2.6-.7-5-2.4-6.9zM13 5.6c1.4 0 2.7.5 3.7 1.5s1.5 2.3 1.5 3.7c0 .5.4.9.9.9s.9-.4.9-.9c0-1.8-.7-3.6-2-4.9s-3.1-2-4.9-2c-.5 0-.9.4-.9.9 0 .4.4.8.8.8zm0 3.1c1.2 0 2.2 1 2.2 2.2 0 .5.4.9.9.9s.9-.4.9-.9C17 8.7 15.2 7 13.1 7c-.5 0-.9.4-.9.8 0 .5.3.9.8.9zm-3.9 1.4c-.4.3-.5.8-.2 1.2.3.4.8.5 1.2.2.6-.3 1-1 1-1.7-.2-.8-.5-1.5-1-2-.4-.7-1-1.2-1.7-1.6-.4-.1-.9-.1-1.3 0-.9.2-1.6.8-2 1.6-.3.8-.3 1.7 0 2.4.8 2 2 3.8 3.5 5.3s3.3 2.7 5.3 3.4c.4.2.9.3 1.3.3s.8-.1 1.2-.2c.8-.4 1.4-1.1 1.6-1.9.1-.4.1-.9 0-1.3-.4-.7-.9-1.3-1.6-1.6-.6-.5-1.3-.8-2.1-1-.7 0-1.4.4-1.7 1-.3.4-.2.9.2 1.2.4.3.9.2 1.2-.2.1-.1.1-.2.2-.2.8.4 1.5.9 2.1 1.6v.1c-.1.4-.4.7-.7.9-.4.1-.7.1-1.1 0-1.8-.7-3.4-1.7-4.8-3.1-1.3-1.4-2.4-3-3.1-4.7 0-.5 0-.9.1-1.2.2-.4.6-.6 1-.7h.1c.6.5 1.2 1.3 1.6 2.1-.1 0-.2.1-.3.1z" fill-rule="evenodd" clip-rule="evenodd" fill="#6a5cb0"/></svg>