<svg version="1.1" id="Слой_1" xmlns="http://www.w3.org/2000/svg" x="0" y="0" viewBox="0 0 25 26.1" xml:space="preserve"><style>.st0{fill:#e6b453}</style><path class="st0" d="M13.1 3.5c2.4 0 4.7.9 6.3 2.6C21.1 7.8 22 10 22 12.4c0 .5.4 1 1 1 .5 0 1-.4 1-1 0-2.9-1.1-5.7-3.2-7.7-2-2-4.8-3.2-7.7-3.2H13c-.5 0-1 .4-1 1 .1.6.5 1 1.1 1zM25 20.7c0-1-.4-1.9-1.1-2.5-1.4-1.3-2.5-2.1-3.6-2.4-1.5-.4-2.9 0-4.1 1.2l-1.3 1.3c-.8-.5-2.4-1.5-4.2-3.2l-.1-.1c-1.7-1.7-2.8-3.3-3.2-4.2l1.3-1.3c1.2-1.2 1.6-2.6 1.2-4.1C9.5 4.2 8.7 3 7.4 1.7 6.7 1 5.8.6 4.9.5c-1 0-1.9.3-2.6.9C.7 3 0 5 0 7.3c0 4 2.2 8.6 5.9 12.3.7.7 1.5 1.4 2.3 2 .4.3 1 .2 1.4-.2.3-.4.2-1-.2-1.4-.8-.6-1.5-1.2-2.1-1.9C4 14.9 2 10.8 2 7.3c0-1.8.5-3.3 1.6-4.4.7-.6 1.7-.6 2.4.1 2.5 2.6 2.3 3.9 1.2 5L5.4 9.9c-.3.3-.4.7-.2 1.1 0 .1 1.2 2.6 3.9 5.3l.1.1c2.8 2.8 5.2 3.9 5.3 3.9.4.2.8.1 1.1-.2l1.8-1.8c1.1-1.1 2.4-1.3 5 1.2.7.7.7 1.7.1 2.4-1 1-2.6 1.6-4.4 1.6-1.4 0-3.1-.4-4.8-1.1-.5-.2-1.1 0-1.3.5-.2.5 0 1.1.5 1.3 2 .9 3.9 1.3 5.6 1.3h.1c2.3 0 4.3-.8 5.7-2.2.8-.7 1.1-1.7 1.1-2.6z"/><path class="st0" d="M18 7.5c-1-1-2.1-1.3-2.5-1.5-.5-.1-1.1.2-1.2.7-.1.5.2 1.1.7 1.2.4.1 1 .3 1.7 1s.8 1.3.9 1.6c.1.4.5.7.9.7h.3c.5-.2.8-.7.7-1.2-.2-.5-.5-1.5-1.5-2.5z"/></svg>