<svg xmlns="http://www.w3.org/2000/svg" viewBox="0 0 25 26.1"><path d="M19.8 24c-.2 0-.4-.1-.5-.2l-6-4.2-3.3 2.5c-.3.2-.6.2-.9.1-.3-.1-.5-.4-.6-.7l-1.6-6.3-5.8-2.3c-.4-.2-.6-.5-.6-.9s.2-.8.6-.9l22.1-9c.1 0 .2-.1.3-.1h.1c.2 0 .4.1.6.3.1.2.2.4.2.6V3.2l-3.7 20c-.1.3-.3.6-.6.7 0 .1-.2.1-.3.1zm-6-6.3l5.4 3.7 2.9-15.6-10.5 10.4 2.2 1.5zm-4.5-.8l.7 2.8 1.6-1.1-2-1.4c-.1-.2-.2-.3-.3-.3zM4.1 12l4 1.6c.3.1.5.4.6.7l.5 2c0-.2.1-.4.3-.6l10-9.9L4.1 12z" fill-rule="evenodd" clip-rule="evenodd" fill="#e6b453"/></svg>