<svg xmlns="http://www.w3.org/2000/svg" viewBox="0 0 25 26.1"><path d="M24.7 12.3c-.1 6.6-5.5 12-12.1 11.9-2 0-3.9-.5-5.6-1.5L.4 24.8l2.2-6.4c-1.1-1.8-1.7-4-1.7-6.1C.8 5.7 6.3.4 12.9.5c6.5.1 11.7 5.3 11.8 11.8zm-12-10c-5.5 0-10 4.4-10.1 10 0 2.1.7 4.2 1.9 5.9l-1.3 3.7 3.9-1.2c4.6 3.1 10.8 1.9 13.9-2.7s2-10.9-2.6-14c-1.7-1.1-3.7-1.7-5.7-1.7zM18.8 15c-.2-.2-.4-.3-.6-.3-.3-.1-1.7-.8-2-.9-.2-.1-.5-.1-.6.1-.2.3-.8.9-.9 1.1-.2.2-.4.2-.6.1-.9-.3-1.7-.8-2.4-1.4-.6-.6-1.2-1.3-1.6-2-.1-.2-.1-.5.1-.6.1-.1.3-.3.4-.5.1-.1.2-.3.3-.5.1-.2.1-.4 0-.5-.2-.2-.7-1.6-1-2.2-.2-.6-.5-.5-.6-.5h-.6c-.3 0-.6.1-.8.4-.7.6-1 1.5-1 2.4.1 1.1.5 2.1 1.2 3 .1.2 2 3.2 5 4.4s3 .8 3.5.7c.8-.2 1.5-.7 2-1.4.2-.4.3-.9.2-1.4z" fill-rule="evenodd" clip-rule="evenodd" fill="#e6b453"/></svg>