<svg xmlns="http://www.w3.org/2000/svg" viewBox="0 0 25 26.1"><path d="M23.3 13c0 2.1-.6 4.2-1.8 6-.3.4-.8.5-1.2.2-.4-.3-.5-.8-.2-1.2 1-1.5 1.5-3.3 1.5-5.1 0-5-4.1-9.1-9.1-9.1S3.4 8 3.4 13s4.1 9.1 9.1 9.1c1.7 0 3.3-.5 4.7-1.3.4-.2.9-.1 1.2.3.2.4.1.9-.3 1.2-1.7 1-3.6 1.6-5.6 1.6-2.9 0-5.6-1.1-7.6-3.2S1.7 15.9 1.7 13s1.1-5.6 3.2-7.6 4.7-3.2 7.6-3.2 5.6 1.1 7.6 3.2 3.2 4.7 3.2 7.6zM12.5 5.6c-.5 0-.8.4-.8.8v5.1c-.5.3-.8.8-.8 1.5 0 .9.8 1.7 1.7 1.7.2 0 .3 0 .4-.1l2.2 2.2c.2.2.4.2.6.2.2 0 .4-.1.6-.2.3-.3.3-.9 0-1.2l-2.2-2.2c0-.1.1-.3.1-.4 0-.6-.3-1.2-.8-1.5v-5c-.1-.5-.5-.9-1-.9z" fill="#e6b453"/></svg>