<svg version="1.1" id="Слой_1" xmlns="http://www.w3.org/2000/svg" x="0" y="0" viewBox="0 0 25 26.1" xml:space="preserve"><style>.st0{fill:#e6b453}</style><path class="st0" d="M21.4 10.1c0-.1-.1-.2-.1-.2 0-.1-.1-.1-.1-.1-.1-.2-.3-.3-.5-.5l-6.6-5.1H14c-1-.6-2.1-.6-3.1 0h-.1L4.3 9.3c-.7.5-1.1 1.4-1.1 2.3v7.9c0 1.6 1.3 2.9 2.9 2.9h9c.4 0 .7-.3.7-.7s-.3-.7-.7-.7h-9c-.8 0-1.5-.7-1.5-1.5v-7.9c0-.4.2-.9.6-1.2l6.6-5.1c.5-.3 1-.3 1.5 0l6.4 4.9-6.4 4.8c-.5.3-1 .3-1.5 0l-4.3-3.2c-.3-.2-.8-.2-1 .1-.2.3-.2.8.1 1l4.4 3.3h.1c.5.3 1 .4 1.5.4s1.1-.1 1.5-.4h.1l6.3-4.8V13c0 .4.3.7.7.7.4 0 .7-.3.7-.7v-1.5c-.1-.4-.2-.9-.5-1.4z"/><path class="st0" d="M21.6 17.7l-2.2-2.2c-.4-.4-1.1-.4-1.5 0l-2.2 2.2c-.3.3-.3.7 0 1 .3.3.7.3 1 0l1.2-1.2v4.1c0 .4.3.7.7.7s.7-.3.7-.7v-4.1l1.2 1.2c.1.1.3.2.5.2s.4-.1.5-.2c.4-.3.4-.7.1-1z"/></svg>