<svg xmlns="http://www.w3.org/2000/svg" viewBox="0 0 25 26.1"><path d="M14.7 25h-3.8c-.6 0-1.2-.5-1.2-1.2v-8.6H7.5c-.6 0-1.2-.5-1.2-1.2v-3.7c0-.6.5-1.2 1.2-1.2h2.2V7.3c0-1.8.6-3.4 1.7-4.5s2.6-1.7 4.4-1.7h2.9c.6 0 1.2.5 1.2 1.2v3.4c0 .6-.5 1.2-1.2 1.2h-2c-.5-.1-.6.1-.7.1-.1.1-.1.2-.1.7v1.5h2.7c.2 0 .4.1.6.1.4.2.6.6.6 1V14c0 .6-.5 1.2-1.2 1.2h-2.7v8.6c0 .7-.5 1.2-1.2 1.2zm-3.5-1.4h3.3v-9c0-.4.3-.8.8-.8h3.1v-3.2h-3.1c-.4 0-.8-.3-.8-.8V7.7c0-.5.1-1.2.5-1.6.5-.6 1.3-.6 1.8-.6h1.7v-3h-2.7c-2.9 0-4.7 1.9-4.7 4.8v2.5c0 .4-.3.8-.8.8H7.8v3.2h2.6c.4 0 .8.3.8.8v9zm7.6-21.1z" fill="#e6b453"/></svg>