<svg version="1.1" id="Слой_1" xmlns="http://www.w3.org/2000/svg" x="0" y="0" viewBox="0 0 25 26.1" xml:space="preserve"><style>.st0{fill:#e6b453}</style><path class="st0" d="M17.2 1.8H7.8c-3.6 0-6.6 2.9-6.6 6.6v9.5c0 3.6 2.9 6.6 6.6 6.6h9.5c3.6 0 6.6-2.9 6.6-6.6V8.3c-.1-3.6-3.1-6.5-6.7-6.5zm4.8 16c0 2.6-2.1 4.8-4.8 4.8H7.8c-2.6 0-4.8-2.1-4.8-4.8V8.3c0-2.6 2.1-4.8 4.8-4.8h9.5c2.6 0 4.8 2.1 4.8 4.8v9.5z"/><path class="st0" d="M12.5 6.9c-3.4 0-6.1 2.7-6.1 6.1s2.7 6.1 6.1 6.1 6.1-2.7 6.1-6.1-2.7-6.1-6.1-6.1zm0 10.4c-2.4 0-4.3-1.9-4.3-4.3s1.9-4.3 4.3-4.3 4.3 1.9 4.3 4.3-1.9 4.3-4.3 4.3z"/><circle class="st0" cx="18.7" cy="6.9" r=".9"/></svg>