<svg version="1.1" id="Слой_1" xmlns="http://www.w3.org/2000/svg" x="0" y="0" viewBox="0 0 25 26.1" xml:space="preserve"><style>.st0{fill:#e6b453}</style><path class="st0" d="M13.1 15.4c.5-.1.9-.5.8-1.1-.1-.5-.5-.9-1.1-.8h-.3c-1.4 0-2.5-1.1-2.5-2.5s1.1-2.5 2.5-2.5S15 9.6 15 11v.4c-.1.5.3 1 .8 1.1.5.1 1-.3 1.1-.8 0-.2.1-.5.1-.7 0-2.4-2-4.4-4.4-4.4s-4.4 2-4.4 4.4 2 4.4 4.4 4.4h.5z"/><path class="st0" d="M11.7 22.8c.2.3.5.4.8.4.3 0 .6-.2.8-.4.9-1.4 2-2.6 3.1-3.7 2.1-2.3 4.3-4.6 4.3-8.1 0-2.2-.9-4.2-2.4-5.7S14.7 3 12.5 3c-2.2 0-4.2.8-5.8 2.4C5.2 6.7 4.3 8.8 4.3 11c0 3.5 2.2 5.8 4.3 8.1 1.1 1.1 2.2 2.3 3.1 3.7zm.8-18c3.5 0 6.3 2.8 6.3 6.2 0 2.7-1.8 4.6-3.8 6.8-.8.9-1.7 1.8-2.5 2.9-.8-1-1.6-1.9-2.5-2.8-2-2.2-3.8-4.1-3.8-6.8 0-3.6 2.8-6.3 6.3-6.3z"/></svg>